{
	"patcher" : 	{
		"fileversion" : 1,
		"appversion" : 		{
			"major" : 7,
			"minor" : 3,
			"revision" : 4,
			"architecture" : "x64",
			"modernui" : 1
		}
,
		"rect" : [ 1717.0, 80.0, 695.0, 846.0 ],
		"bglocked" : 0,
		"openinpresentation" : 0,
		"default_fontsize" : 12.0,
		"default_fontface" : 0,
		"default_fontname" : "Arial",
		"gridonopen" : 1,
		"gridsize" : [ 15.0, 15.0 ],
		"gridsnaponopen" : 1,
		"objectsnaponopen" : 1,
		"statusbarvisible" : 2,
		"toolbarvisible" : 1,
		"lefttoolbarpinned" : 0,
		"toptoolbarpinned" : 0,
		"righttoolbarpinned" : 0,
		"bottomtoolbarpinned" : 0,
		"toolbars_unpinned_last_save" : 0,
		"tallnewobj" : 0,
		"boxanimatetime" : 200,
		"enablehscroll" : 1,
		"enablevscroll" : 1,
		"devicewidth" : 0.0,
		"description" : "",
		"digest" : "",
		"tags" : "",
		"style" : "",
		"subpatcher_template" : "",
		"boxes" : [ 			{
				"box" : 				{
					"id" : "obj-97",
					"maxclass" : "newobj",
					"numinlets" : 2,
					"numoutlets" : 2,
					"outlettype" : [ "", "" ],
					"patching_rect" : [ 552.0, 389.0, 54.0, 22.0 ],
					"style" : "",
					"text" : "route git"
				}

			}
, 			{
				"box" : 				{
					"id" : "obj-96",
					"maxclass" : "newobj",
					"numinlets" : 1,
					"numoutlets" : 1,
					"outlettype" : [ "" ],
					"patching_rect" : [ 539.0, 433.0, 73.0, 22.0 ],
					"style" : "",
					"text" : "fromsymbol"
				}

			}
, 			{
				"box" : 				{
					"id" : "obj-95",
					"linecount" : 711,
					"maxclass" : "message",
					"numinlets" : 2,
					"numoutlets" : 1,
					"outlettype" : [ "" ],
					"patching_rect" : [ 528.0, 313.0, 407.0, 9540.0 ],
					"style" : "",
					"text" : "\"{\n\t\\\"patcher\\\" : \t{\n\t\t\\\"fileversion\\\" : 1,\n\t\t\\\"appversion\\\" : \t\t{\n\t\t\t\\\"major\\\" : 7,\n\t\t\t\\\"minor\\\" : 3,\n\t\t\t\\\"revision\\\" : 4,\n\t\t\t\\\"architecture\\\" : \\\"x64\\\",\n\t\t\t\\\"modernui\\\" : 1\n\t\t}\n,\n\t\t\\\"rect\\\" : [ 1717.0, 80.0, 695.0, 846.0 ],\n\t\t\\\"bglocked\\\" : 0,\n\t\t\\\"openinpresentation\\\" : 0,\n\t\t\\\"default_fontsize\\\" : 12.0,\n\t\t\\\"default_fontface\\\" : 0,\n\t\t\\\"default_fontname\\\" : \\\"Arial\\\",\n\t\t\\\"gridonopen\\\" : 1,\n\t\t\\\"gridsize\\\" : [ 15.0, 15.0 ],\n\t\t\\\"gridsnaponopen\\\" : 1,\n\t\t\\\"objectsnaponopen\\\" : 1,\n\t\t\\\"statusbarvisible\\\" : 2,\n\t\t\\\"toolbarvisible\\\" : 1,\n\t\t\\\"lefttoolbarpinned\\\" : 0,\n\t\t\\\"toptoolbarpinned\\\" : 0,\n\t\t\\\"righttoolbarpinned\\\" : 0,\n\t\t\\\"bottomtoolbarpinned\\\" : 0,\n\t\t\\\"toolbars_unpinned_last_save\\\" : 0,\n\t\t\\\"tallnewobj\\\" : 0,\n\t\t\\\"boxanimatetime\\\" : 200,\n\t\t\\\"enablehscroll\\\" : 1,\n\t\t\\\"enablevscroll\\\" : 1,\n\t\t\\\"devicewidth\\\" : 0.0,\n\t\t\\\"description\\\" : \\\"\\\",\n\t\t\\\"digest\\\" : \\\"\\\",\n\t\t\\\"tags\\\" : \\\"\\\",\n\t\t\\\"style\\\" : \\\"\\\",\n\t\t\\\"subpatcher_template\\\" : \\\"\\\",\n\t\t\\\"boxes\\\" : [ \t\t\t{\n\t\t\t\t\\\"box\\\" : \t\t\t\t{\n\t\t\t\t\t\\\"id\\\" : \\\"obj-97\\\",\n\t\t\t\t\t\\\"maxclass\\\" : \\\"newobj\\\",\n\t\t\t\t\t\\\"numinlets\\\" : 2,\n\t\t\t\t\t\\\"numoutlets\\\" : 2,\n\t\t\t\t\t\\\"outlettype\\\" : [ \\\"\\\", \\\"\\\" ],\n\t\t\t\t\t\\\"patching_rect\\\" : [ 564.0, 391.0, 54.0, 22.0 ],\n\t\t\t\t\t\\\"style\\\" : \\\"\\\",\n\t\t\t\t\t\\\"text\\\" : \\\"route git\\\"\n\t\t\t\t}\n\n\t\t\t}\n, \t\t\t{\n\t\t\t\t\\\"box\\\" : \t\t\t\t{\n\t\t\t\t\t\\\"id\\\" : \\\"obj-96\\\",\n\t\t\t\t\t\\\"maxclass\\\" : \\\"newobj\\\",\n\t\t\t\t\t\\\"numinlets\\\" : 1,\n\t\t\t\t\t\\\"numoutlets\\\" : 1,\n\t\t\t\t\t\\\"outlettype\\\" : [ \\\"\\\" ],\n\t\t\t\t\t\\\"patching_rect\\\" : [ 539.0, 433.0, 73.0, 22.0 ],\n\t\t\t\t\t\\\"style\\\" : \\\"\\\",\n\t\t\t\t\t\\\"text\\\" : \\\"fromsymbol\\\"\n\t\t\t\t}\n\n\t\t\t}\n, \t\t\t{\n\t\t\t\t\\\"box\\\" : \t\t\t\t{\n\t\t\t\t\t\\\"id\\\" : \\\"obj-95\\\",\n\t\t\t\t\t\\\"maxclass\\\" : \\\"message\\\",\n\t\t\t\t\t\\\"numinlets\\\" : 2,\n\t\t\t\t\t\\\"numoutlets\\\" : 1,\n\t\t\t\t\t\\\"outlettype\\\" : [ \\\"\\\" ],\n\t\t\t\t\t\\\"patching_rect\\\" : [ 528.0, 313.0, 407.0, 22.0 ],\n\t\t\t\t\t\\\"style\\\" : \\\"\\\",\n\t\t\t\t\t\\\"text\\\" : \\\"\\\"git commit -a -m \\\\\\\"atomic_commit\\\\\\\"\\\"\\\"\n\t\t\t\t}\n\n\t\t\t}\n, \t\t\t{\n\t\t\t\t\\\"box\\\" : \t\t\t\t{\n\t\t\t\t\t\\\"id\\\" : \\\"obj-93\\\",\n\t\t\t\t\t\\\"maxclass\\\" : \\\"newobj\\\",\n\t\t\t\t\t\\\"numinlets\\\" : 2,\n\t\t\t\t\t\\\"numoutlets\\\" : 4,\n\t\t\t\t\t\\\"outlettype\\\" : [ \\\"dictionary\\\", \\\"\\\", \\\"\\\", \\\"\\\" ],\n\t\t\t\t\t\\\"patching_rect\\\" : [ 539.0, 459.0, 89.0, 22.0 ],\n\t\t\t\t\t\\\"saved_object_attributes\\\" : \t\t\t\t\t{\n\t\t\t\t\t\t\\\"embed\\\" : 0,\n\t\t\t\t\t\t\\\"parameter_enable\\\" : 0\n\t\t\t\t\t}\n,\n\t\t\t\t\t\\\"style\\\" : \\\"\\\",\n\t\t\t\t\t\\\"text\\\" : \\\"dict keyframe2\\\"\n\t\t\t\t}\n\n\t\t\t}\n, \t\t\t{\n\t\t\t\t\\\"box\\\" : \t\t\t\t{\n\t\t\t\t\t\\\"id\\\" : \\\"obj-91\\\",\n\t\t\t\t\t\\\"maxclass\\\" : \\\"button\\\",\n\t\t\t\t\t\\\"numinlets\\\" : 1,\n\t\t\t\t\t\\\"numoutlets\\\" : 1,\n\t\t\t\t\t\\\"outlettype\\\" : [ \\\"bang\\\" ],\n\t\t\t\t\t\\\"patching_rect\\\" : [ 203.0, 252.0, 24.0, 24.0 ],\n\t\t\t\t\t\\\"style\\\" : \\\"\\\"\n\t\t\t\t}\n\n\t\t\t}\n, \t\t\t{\n\t\t\t\t\\\"box\\\" : \t\t\t\t{\n\t\t\t\t\t\\\"id\\\" : \\\"obj-89\\\",\n\t\t\t\t\t\\\"maxclass\\\" : \\\"newobj\\\",\n\t\t\t\t\t\\\"numinlets\\\" : 1,\n\t\t\t\t\t\\\"numoutlets\\\" : 1,\n\t\t\t\t\t\\\"outlettype\\\" : [ \\\"bang\\\" ],\n\t\t\t\t\t\\\"patching_rect\\\" : [ 263.0, 737.0, 60.0, 22.0 ],\n\t\t\t\t\t\\\"style\\\" : \\\"\\\",\n\t\t\t\t\t\\\"text\\\" : \\\"loadbang\\\"\n\t\t\t\t}\n\n\t\t\t}\n, \t\t\t{\n\t\t\t\t\\\"box\\\" : \t\t\t\t{\n\t\t\t\t\t\\\"id\\\" : \\\"obj-88\\\",\n\t\t\t\t\t\\\"linecount\\\" : 2,\n\t\t\t\t\t\\\"maxclass\\\" : \\\"message\\\",\n\t\t\t\t\t\\\"numinlets\\\" : 2,\n\t\t\t\t\t\\\"numoutlets\\\" : 1,\n\t\t\t\t\t\\\"outlettype\\\" : [ \\\"\\\" ],\n\t\t\t\t\t\\\"patching_rect\\\" : [ 263.0, 771.0, 164.0, 35.0 ],\n\t\t\t\t\t\\\"style\\\" : \\\"\\\",\n\t\t\t\t\t\\\"text\\\" : \\\";rmax sortpatcherdictonsave 1\\\"\n\t\t\t\t}\n\n\t\t\t}\n, \t\t\t{\n\t\t\t\t\\\"box\\\" : \t\t\t\t{\n\t\t\t\t\t\\\"id\\\" : \\\"obj-86\\\",\n\t\t\t\t\t\\\"linecount\\\" : 10,\n\t\t\t\t\t\\\"maxclass\\\" : \\\"comment\\\",\n\t\t\t\t\t\\\"numinlets\\\" : 1,\n\t\t\t\t\t\\\"numoutlets\\\" : 0,\n\t\t\t\t\t\\\"patching_rect\\\" : [ 78.25, 562.0, 478.0, 141.0 ],\n\t\t\t\t\t\\\"style\\\" : \\\"\\\",\n\t\t\t\t\t\\\"text\\\" : \\\"possible data structure for representing Editor files in git diffs: GMLnnhttp://docs.yworks.com/yfiles/doc/developers-guide/gml.htmlnnNeed to ask Graham if this is something he'd work with. The trick is that we'd need to get every node and edge in its own line (no line breaks, or else git gets weird)nnnalternately, graphviz might make more sense, since it powers a lot of apps. could therefore stick with the the dot format of files. \\\"\n\t\t\t\t}\n\n\t\t\t}\n, \t\t\t{\n\t\t\t\t\\\"box\\\" : \t\t\t\t{\n\t\t\t\t\t\\\"id\\\" : \\\"obj-84\\\",\n\t\t\t\t\t\\\"linecount\\\" : 2,\n\t\t\t\t\t\\\"maxclass\\\" : \\\"comment\\\",\n\t\t\t\t\t\\\"numinlets\\\" : 1,\n\t\t\t\t\t\\\"numoutlets\\\" : 0,\n\t\t\t\t\t\\\"patching_rect\\\" : [ 260.0, 4.5, 150.0, 33.0 ],\n\t\t\t\t\t\\\"style\\\" : \\\"\\\",\n\t\t\t\t\t\\\"text\\\" : \\\"1. run \\\"node vr-commits.js\\\" in terminal\\\"\n\t\t\t\t}\n\n\t\t\t}\n, \t\t\t{\n\t\t\t\t\\\"box\\\" : \t\t\t\t{\n\t\t\t\t\t\\\"id\\\" : \\\"obj-82\\\",\n\t\t\t\t\t\\\"maxclass\\\" : \\\"message\\\",\n\t\t\t\t\t\\\"numinlets\\\" : 2,\n\t\t\t\t\t\\\"numoutlets\\\" : 1,\n\t\t\t\t\t\\\"outlettype\\\" : [ \\\"\\\" ],\n\t\t\t\t\t\\\"patching_rect\\\" : [ 52.0, 335.0, 207.0, 22.0 ],\n\t\t\t\t\t\\\"style\\\" : \\\"\\\",\n\t\t\t\t\t\\\"text\\\" : \\\"write atomic_commits.keyframe.yaml\\\"\n\t\t\t\t}\n\n\t\t\t}\n, \t\t\t{\n\t\t\t\t\\\"box\\\" : \t\t\t\t{\n\t\t\t\t\t\\\"id\\\" : \\\"obj-67\\\",\n\t\t\t\t\t\\\"linecount\\\" : 3,\n\t\t\t\t\t\\\"maxclass\\\" : \\\"comment\\\",\n\t\t\t\t\t\\\"numinlets\\\" : 1,\n\t\t\t\t\t\\\"numoutlets\\\" : 0,\n\t\t\t\t\t\\\"patching_rect\\\" : [ 406.25, 141.0, 150.0, 47.0 ],\n\t\t\t\t\t\\\"style\\\" : \\\"\\\",\n\t\t\t\t\t\\\"text\\\" : \\\"for now, this will be how we commit, using a single line commit. \\\"\n\t\t\t\t}\n\n\t\t\t}\n, \t\t\t{\n\t\t\t\t\\\"box\\\" : \t\t\t\t{\n\t\t\t\t\t\\\"id\\\" : \\\"obj-65\\\",\n\t\t\t\t\t\\\"maxclass\\\" : \\\"newobj\\\",\n\t\t\t\t\t\\\"numinlets\\\" : 2,\n\t\t\t\t\t\\\"numoutlets\\\" : 2,\n\t\t\t\t\t\\\"outlettype\\\" : [ \\\"bang\\\", \\\"\\\" ],\n\t\t\t\t\t\\\"patching_rect\\\" : [ 260.0, 276.0, 36.0, 22.0 ],\n\t\t\t\t\t\\\"style\\\" : \\\"\\\",\n\t\t\t\t\t\\\"text\\\" : \\\"sel 0\\\"\n\t\t\t\t}\n\n\t\t\t}\n, \t\t\t{\n\t\t\t\t\\\"box\\\" : \t\t\t\t{\n\t\t\t\t\t\\\"id\\\" : \\\"obj-64\\\",\n\t\t\t\t\t\\\"maxclass\\\" : \\\"dict.view\\\",\n\t\t\t\t\t\\\"numinlets\\\" : 1,\n\t\t\t\t\t\\\"numoutlets\\\" : 0,\n\t\t\t\t\t\\\"patching_rect\\\" : [ 275.0, 413.0, 215.0, 96.0 ],\n\t\t\t\t\t\\\"style\\\" : \\\"\\\"\n\t\t\t\t}\n\n\t\t\t}\n, \t\t\t{\n\t\t\t\t\\\"box\\\" : \t\t\t\t{\n\t\t\t\t\t\\\"id\\\" : \\\"obj-62\\\",\n\t\t\t\t\t\\\"maxclass\\\" : \\\"newobj\\\",\n\t\t\t\t\t\\\"numinlets\\\" : 1,\n\t\t\t\t\t\\\"numoutlets\\\" : 2,\n\t\t\t\t\t\\\"outlettype\\\" : [ \\\"bang\\\", \\\"bang\\\" ],\n\t\t\t\t\t\\\"patching_rect\\\" : [ 260.0, 300.0, 34.0, 22.0 ],\n\t\t\t\t\t\\\"style\\\" : \\\"\\\",\n\t\t\t\t\t\\\"text\\\" : \\\"t b b\\\"\n\t\t\t\t}\n\n\t\t\t}\n, \t\t\t{\n\t\t\t\t\\\"box\\\" : \t\t\t\t{\n\t\t\t\t\t\\\"id\\\" : \\\"obj-58\\\",\n\t\t\t\t\t\\\"maxclass\\\" : \\\"newobj\\\",\n\t\t\t\t\t\\\"numinlets\\\" : 5,\n\t\t\t\t\t\\\"numoutlets\\\" : 4,\n\t\t\t\t\t\\\"outlettype\\\" : [ \\\"int\\\", \\\"\\\", \\\"\\\", \\\"int\\\" ],\n\t\t\t\t\t\\\"patching_rect\\\" : [ 260.0, 252.0, 77.0, 22.0 ],\n\t\t\t\t\t\\\"style\\\" : \\\"\\\",\n\t\t\t\t\t\\\"text\\\" : \\\"counter 0 10\\\"\n\t\t\t\t}\n\n\t\t\t}\n, \t\t\t{\n\t\t\t\t\\\"box\\\" : \t\t\t\t{\n\t\t\t\t\t\\\"id\\\" : \\\"obj-59\\\",\n\t\t\t\t\t\\\"maxclass\\\" : \\\"newobj\\\",\n\t\t\t\t\t\\\"numinlets\\\" : 1,\n\t\t\t\t\t\\\"numoutlets\\\" : 2,\n\t\t\t\t\t\\\"outlettype\\\" : [ \\\"bang\\\", \\\"bang\\\" ],\n\t\t\t\t\t\\\"patching_rect\\\" : [ 260.0, 94.0, 34.0, 22.0 ],\n\t\t\t\t\t\\\"style\\\" : \\\"\\\",\n\t\t\t\t\t\\\"text\\\" : \\\"t b b\\\"\n\t\t\t\t}\n\n\t\t\t}\n, \t\t\t{\n\t\t\t\t\\\"box\\\" : \t\t\t\t{\n\t\t\t\t\t\\\"id\\\" : \\\"obj-57\\\",\n\t\t\t\t\t\\\"maxclass\\\" : \\\"message\\\",\n\t\t\t\t\t\\\"numinlets\\\" : 2,\n\t\t\t\t\t\\\"numoutlets\\\" : 1,\n\t\t\t\t\t\\\"outlettype\\\" : [ \\\"\\\" ],\n\t\t\t\t\t\\\"patching_rect\\\" : [ 275.0, 335.0, 187.0, 22.0 ],\n\t\t\t\t\t\\\"style\\\" : \\\"\\\",\n\t\t\t\t\t\\\"text\\\" : \\\"readany atomic_commits.maxpat\\\"\n\t\t\t\t}\n\n\t\t\t}\n, \t\t\t{\n\t\t\t\t\\\"box\\\" : \t\t\t\t{\n\t\t\t\t\t\\\"id\\\" : \\\"obj-54\\\",\n\t\t\t\t\t\\\"maxclass\\\" : \\\"newobj\\\",\n\t\t\t\t\t\\\"numinlets\\\" : 2,\n\t\t\t\t\t\\\"numoutlets\\\" : 4,\n\t\t\t\t\t\\\"outlettype\\\" : [ \\\"dictionary\\\", \\\"\\\", \\\"\\\", \\\"\\\" ],\n\t\t\t\t\t\\\"patching_rect\\\" : [ 275.0, 380.0, 215.0, 22.0 ],\n\t\t\t\t\t\\\"saved_object_attributes\\\" : \t\t\t\t\t{\n\t\t\t\t\t\t\\\"embed\\\" : 0,\n\t\t\t\t\t\t\\\"parameter_enable\\\" : 0\n\t\t\t\t\t}\n,\n\t\t\t\t\t\\\"style\\\" : \\\"\\\",\n\t\t\t\t\t\\\"text\\\" : \\\"dict keyframe\\\"\n\t\t\t\t}\n\n\t\t\t}\n, \t\t\t{\n\t\t\t\t\\\"box\\\" : \t\t\t\t{\n\t\t\t\t\t\\\"id\\\" : \\\"obj-48\\\",\n\t\t\t\t\t\\\"maxclass\\\" : \\\"toggle\\\",\n\t\t\t\t\t\\\"numinlets\\\" : 1,\n\t\t\t\t\t\\\"numoutlets\\\" : 1,\n\t\t\t\t\t\\\"outlettype\\\" : [ \\\"int\\\" ],\n\t\t\t\t\t\\\"parameter_enable\\\" : 0,\n\t\t\t\t\t\\\"patching_rect\\\" : [ 84.0, 9.0, 24.0, 24.0 ],\n\t\t\t\t\t\\\"style\\\" : \\\"\\\"\n\t\t\t\t}\n\n\t\t\t}\n, \t\t\t{\n\t\t\t\t\\\"box\\\" : \t\t\t\t{\n\t\t\t\t\t\\\"id\\\" : \\\"obj-46\\\",\n\t\t\t\t\t\\\"maxclass\\\" : \\\"message\\\",\n\t\t\t\t\t\\\"numinlets\\\" : 2,\n\t\t\t\t\t\\\"numoutlets\\\" : 1,\n\t\t\t\t\t\\\"outlettype\\\" : [ \\\"\\\" ],\n\t\t\t\t\t\\\"patching_rect\\\" : [ 387.0, 193.0, 196.0, 22.0 ],\n\t\t\t\t\t\\\"style\\\" : \\\"\\\",\n\t\t\t\t\t\\\"text\\\" : \\\"git commit -a -m \\\\\\\"atomic_commit\\\\\\\"\\\"\n\t\t\t\t}\n\n\t\t\t}\n, \t\t\t{\n\t\t\t\t\\\"box\\\" : \t\t\t\t{\n\t\t\t\t\t\\\"id\\\" : \\\"obj-38\\\",\n\t\t\t\t\t\\\"maxclass\\\" : \\\"newobj\\\",\n\t\t\t\t\t\\\"numinlets\\\" : 1,\n\t\t\t\t\t\\\"numoutlets\\\" : 1,\n\t\t\t\t\t\\\"outlettype\\\" : [ \\\"bang\\\" ],\n\t\t\t\t\t\\\"patching_rect\\\" : [ 7.75, 99.0, 24.0, 22.0 ],\n\t\t\t\t\t\\\"style\\\" : \\\"\\\",\n\t\t\t\t\t\\\"text\\\" : \\\"t b\\\"\n\t\t\t\t}\n\n\t\t\t}\n, \t\t\t{\n\t\t\t\t\\\"box\\\" : \t\t\t\t{\n\t\t\t\t\t\\\"id\\\" : \\\"obj-34\\\",\n\t\t\t\t\t\\\"maxclass\\\" : \\\"newobj\\\",\n\t\t\t\t\t\\\"numinlets\\\" : 0,\n\t\t\t\t\t\\\"numoutlets\\\" : 4,\n\t\t\t\t\t\\\"outlettype\\\" : [ \\\"int\\\", \\\"int\\\", \\\"int\\\", \\\"int\\\" ],\n\t\t\t\t\t\\\"patching_rect\\\" : [ 7.75, 68.0, 50.5, 22.0 ],\n\t\t\t\t\t\\\"style\\\" : \\\"\\\",\n\t\t\t\t\t\\\"text\\\" : \\\"keyup\\\"\n\t\t\t\t}\n\n\t\t\t}\n, \t\t\t{\n\t\t\t\t\\\"box\\\" : \t\t\t\t{\n\t\t\t\t\t\\\"id\\\" : \\\"obj-33\\\",\n\t\t\t\t\t\\\"linecount\\\" : 6,\n\t\t\t\t\t\\\"maxclass\\\" : \\\"comment\\\",\n\t\t\t\t\t\\\"numinlets\\\" : 1,\n\t\t\t\t\t\\\"numoutlets\\\" : 0,\n\t\t\t\t\t\\\"patching_rect\\\" : [ 7.75, 215.0, 166.0, 87.0 ],\n\t\t\t\t\t\\\"style\\\" : \\\"\\\",\n\t\t\t\t\t\\\"text\\\" : \\\"right now an atomic change is a mouse click-up, or a keyupnn(evenutally it could also be a parameter change)\\\"\n\t\t\t\t}\n\n\t\t\t}\n, \t\t\t{\n\t\t\t\t\\\"box\\\" : \t\t\t\t{\n\t\t\t\t\t\\\"id\\\" : \\\"obj-4\\\",\n\t\t\t\t\t\\\"maxclass\\\" : \\\"newobj\\\",\n\t\t\t\t\t\\\"numinlets\\\" : 2,\n\t\t\t\t\t\\\"numoutlets\\\" : 1,\n\t\t\t\t\t\\\"outlettype\\\" : [ \\\"bang\\\" ],\n\t\t\t\t\t\\\"patching_rect\\\" : [ 406.25, 221.0, 115.0, 22.0 ],\n\t\t\t\t\t\\\"style\\\" : \\\"\\\",\n\t\t\t\t\t\\\"text\\\" : \\\"metro 10 @active 1\\\"\n\t\t\t\t}\n\n\t\t\t}\n, \t\t\t{\n\t\t\t\t\\\"box\\\" : \t\t\t\t{\n\t\t\t\t\t\\\"color\\\" : [ 0.952941, 0.564706, 0.098039, 1.0 ],\n\t\t\t\t\t\\\"id\\\" : \\\"obj-92\\\",\n\t\t\t\t\t\\\"maxclass\\\" : \\\"newobj\\\",\n\t\t\t\t\t\\\"numinlets\\\" : 1,\n\t\t\t\t\t\\\"numoutlets\\\" : 2,\n\t\t\t\t\t\\\"outlettype\\\" : [ \\\"\\\", \\\"\\\" ],\n\t\t\t\t\t\\\"patching_rect\\\" : [ 406.25, 262.0, 91.0, 22.0 ],\n\t\t\t\t\t\\\"style\\\" : \\\"\\\",\n\t\t\t\t\t\\\"text\\\" : \\\"ws @port 8080\\\"\n\t\t\t\t}\n\n\t\t\t}\n, \t\t\t{\n\t\t\t\t\\\"box\\\" : \t\t\t\t{\n\t\t\t\t\t\\\"id\\\" : \\\"obj-17\\\",\n\t\t\t\t\t\\\"maxclass\\\" : \\\"newobj\\\",\n\t\t\t\t\t\\\"numinlets\\\" : 1,\n\t\t\t\t\t\\\"numoutlets\\\" : 1,\n\t\t\t\t\t\\\"outlettype\\\" : [ \\\"\\\" ],\n\t\t\t\t\t\\\"patching_rect\\\" : [ 260.0, 42.0, 72.0, 22.0 ],\n\t\t\t\t\t\\\"style\\\" : \\\"\\\",\n\t\t\t\t\t\\\"text\\\" : \\\"loadmess 1\\\"\n\t\t\t\t}\n\n\t\t\t}\n, \t\t\t{\n\t\t\t\t\\\"box\\\" : \t\t\t\t{\n\t\t\t\t\t\\\"id\\\" : \\\"obj-9\\\",\n\t\t\t\t\t\\\"maxclass\\\" : \\\"newobj\\\",\n\t\t\t\t\t\\\"numinlets\\\" : 1,\n\t\t\t\t\t\\\"numoutlets\\\" : 1,\n\t\t\t\t\t\\\"outlettype\\\" : [ \\\"bang\\\" ],\n\t\t\t\t\t\\\"patching_rect\\\" : [ 260.0, 70.0, 190.0, 22.0 ],\n\t\t\t\t\t\\\"style\\\" : \\\"\\\",\n\t\t\t\t\t\\\"text\\\" : \\\"filewatch atomic_commits.maxpat\\\"\n\t\t\t\t}\n\n\t\t\t}\n, \t\t\t{\n\t\t\t\t\\\"box\\\" : \t\t\t\t{\n\t\t\t\t\t\\\"id\\\" : \\\"obj-8\\\",\n\t\t\t\t\t\\\"maxclass\\\" : \\\"newobj\\\",\n\t\t\t\t\t\\\"numinlets\\\" : 1,\n\t\t\t\t\t\\\"numoutlets\\\" : 1,\n\t\t\t\t\t\\\"outlettype\\\" : [ \\\"write\\\" ],\n\t\t\t\t\t\\\"patching_rect\\\" : [ 84.0, 146.0, 43.0, 22.0 ],\n\t\t\t\t\t\\\"style\\\" : \\\"\\\",\n\t\t\t\t\t\\\"text\\\" : \\\"t write\\\"\n\t\t\t\t}\n\n\t\t\t}\n, \t\t\t{\n\t\t\t\t\\\"box\\\" : \t\t\t\t{\n\t\t\t\t\t\\\"id\\\" : \\\"obj-7\\\",\n\t\t\t\t\t\\\"maxclass\\\" : \\\"newobj\\\",\n\t\t\t\t\t\\\"numinlets\\\" : 2,\n\t\t\t\t\t\\\"numoutlets\\\" : 2,\n\t\t\t\t\t\\\"outlettype\\\" : [ \\\"bang\\\", \\\"\\\" ],\n\t\t\t\t\t\\\"patching_rect\\\" : [ 84.0, 116.0, 36.0, 22.0 ],\n\t\t\t\t\t\\\"style\\\" : \\\"\\\",\n\t\t\t\t\t\\\"text\\\" : \\\"sel 0\\\"\n\t\t\t\t}\n\n\t\t\t}\n, \t\t\t{\n\t\t\t\t\\\"box\\\" : \t\t\t\t{\n\t\t\t\t\t\\\"id\\\" : \\\"obj-6\\\",\n\t\t\t\t\t\\\"maxclass\\\" : \\\"newobj\\\",\n\t\t\t\t\t\\\"numinlets\\\" : 1,\n\t\t\t\t\t\\\"numoutlets\\\" : 3,\n\t\t\t\t\t\\\"outlettype\\\" : [ \\\"\\\", \\\"int\\\", \\\"int\\\" ],\n\t\t\t\t\t\\\"patching_rect\\\" : [ 84.0, 92.0, 50.0, 22.0 ],\n\t\t\t\t\t\\\"style\\\" : \\\"\\\",\n\t\t\t\t\t\\\"text\\\" : \\\"change\\\"\n\t\t\t\t}\n\n\t\t\t}\n, \t\t\t{\n\t\t\t\t\\\"box\\\" : \t\t\t\t{\n\t\t\t\t\t\\\"id\\\" : \\\"obj-3\\\",\n\t\t\t\t\t\\\"maxclass\\\" : \\\"newobj\\\",\n\t\t\t\t\t\\\"numinlets\\\" : 2,\n\t\t\t\t\t\\\"numoutlets\\\" : 1,\n\t\t\t\t\t\\\"outlettype\\\" : [ \\\"bang\\\" ],\n\t\t\t\t\t\\\"patching_rect\\\" : [ 84.0, 41.0, 115.0, 22.0 ],\n\t\t\t\t\t\\\"style\\\" : \\\"\\\",\n\t\t\t\t\t\\\"text\\\" : \\\"metro 10 @active 1\\\"\n\t\t\t\t}\n\n\t\t\t}\n, \t\t\t{\n\t\t\t\t\\\"box\\\" : \t\t\t\t{\n\t\t\t\t\t\\\"id\\\" : \\\"obj-2\\\",\n\t\t\t\t\t\\\"maxclass\\\" : \\\"newobj\\\",\n\t\t\t\t\t\\\"numinlets\\\" : 1,\n\t\t\t\t\t\\\"numoutlets\\\" : 5,\n\t\t\t\t\t\\\"outlettype\\\" : [ \\\"int\\\", \\\"int\\\", \\\"int\\\", \\\"int\\\", \\\"int\\\" ],\n\t\t\t\t\t\\\"patching_rect\\\" : [ 84.0, 68.0, 73.0, 22.0 ],\n\t\t\t\t\t\\\"style\\\" : \\\"\\\",\n\t\t\t\t\t\\\"text\\\" : \\\"mousestate\\\"\n\t\t\t\t}\n\n\t\t\t}\n, \t\t\t{\n\t\t\t\t\\\"box\\\" : \t\t\t\t{\n\t\t\t\t\t\\\"id\\\" : \\\"obj-1\\\",\n\t\t\t\t\t\\\"maxclass\\\" : \\\"newobj\\\",\n\t\t\t\t\t\\\"numinlets\\\" : 1,\n\t\t\t\t\t\\\"numoutlets\\\" : 2,\n\t\t\t\t\t\\\"outlettype\\\" : [ \\\"\\\", \\\"\\\" ],\n\t\t\t\t\t\\\"patching_rect\\\" : [ 84.0, 182.0, 69.0, 22.0 ],\n\t\t\t\t\t\\\"save\\\" : [ \\\"#N\\\", \\\"thispatcher\\\", \\\";\\\", \\\"#Q\\\", \\\"end\\\", \\\";\\\" ],\n\t\t\t\t\t\\\"style\\\" : \\\"\\\",\n\t\t\t\t\t\\\"text\\\" : \\\"thispatcher\\\"\n\t\t\t\t}\n\n\t\t\t}\n ],\n\t\t\\\"lines\\\" : [ \t\t\t{\n\t\t\t\t\\\"patchline\\\" : \t\t\t\t{\n\t\t\t\t\t\\\"destination\\\" : [ \\\"obj-9\\\", 0 ],\n\t\t\t\t\t\\\"source\\\" : [ \\\"obj-17\\\", 0 ]\n\t\t\t\t}\n\n\t\t\t}\n, \t\t\t{\n\t\t\t\t\\\"patchline\\\" : \t\t\t\t{\n\t\t\t\t\t\\\"destination\\\" : [ \\\"obj-6\\\", 0 ],\n\t\t\t\t\t\\\"source\\\" : [ \\\"obj-2\\\", 0 ]\n\t\t\t\t}\n\n\t\t\t}\n, \t\t\t{\n\t\t\t\t\\\"patchline\\\" : \t\t\t\t{\n\t\t\t\t\t\\\"destination\\\" : [ \\\"obj-2\\\", 0 ],\n\t\t\t\t\t\\\"source\\\" : [ \\\"obj-3\\\", 0 ]\n\t\t\t\t}\n\n\t\t\t}\n, \t\t\t{\n\t\t\t\t\\\"patchline\\\" : \t\t\t\t{\n\t\t\t\t\t\\\"destination\\\" : [ \\\"obj-38\\\", 0 ],\n\t\t\t\t\t\\\"source\\\" : [ \\\"obj-34\\\", 2 ]\n\t\t\t\t}\n\n\t\t\t}\n, \t\t\t{\n\t\t\t\t\\\"patchline\\\" : \t\t\t\t{\n\t\t\t\t\t\\\"destination\\\" : [ \\\"obj-38\\\", 0 ],\n\t\t\t\t\t\\\"source\\\" : [ \\\"obj-34\\\", 0 ]\n\t\t\t\t}\n\n\t\t\t}\n, \t\t\t{\n\t\t\t\t\\\"patchline\\\" : \t\t\t\t{\n\t\t\t\t\t\\\"destination\\\" : [ \\\"obj-8\\\", 0 ],\n\t\t\t\t\t\\\"midpoints\\\" : [ 17.25, 141.0, 93.5, 141.0 ],\n\t\t\t\t\t\\\"source\\\" : [ \\\"obj-38\\\", 0 ]\n\t\t\t\t}\n\n\t\t\t}\n, \t\t\t{\n\t\t\t\t\\\"patchline\\\" : \t\t\t\t{\n\t\t\t\t\t\\\"destination\\\" : [ \\\"obj-92\\\", 0 ],\n\t\t\t\t\t\\\"source\\\" : [ \\\"obj-4\\\", 0 ]\n\t\t\t\t}\n\n\t\t\t}\n, \t\t\t{\n\t\t\t\t\\\"patchline\\\" : \t\t\t\t{\n\t\t\t\t\t\\\"destination\\\" : [ \\\"obj-92\\\", 0 ],\n\t\t\t\t\t\\\"midpoints\\\" : [ 396.5, 250.5, 415.75, 250.5 ],\n\t\t\t\t\t\\\"source\\\" : [ \\\"obj-46\\\", 0 ]\n\t\t\t\t}\n\n\t\t\t}\n, \t\t\t{\n\t\t\t\t\\\"patchline\\\" : \t\t\t\t{\n\t\t\t\t\t\\\"destination\\\" : [ \\\"obj-3\\\", 0 ],\n\t\t\t\t\t\\\"source\\\" : [ \\\"obj-48\\\", 0 ]\n\t\t\t\t}\n\n\t\t\t}\n, \t\t\t{\n\t\t\t\t\\\"patchline\\\" : \t\t\t\t{\n\t\t\t\t\t\\\"destination\\\" : [ \\\"obj-64\\\", 0 ],\n\t\t\t\t\t\\\"order\\\" : 1,\n\t\t\t\t\t\\\"source\\\" : [ \\\"obj-54\\\", 0 ]\n\t\t\t\t}\n\n\t\t\t}\n, \t\t\t{\n\t\t\t\t\\\"patchline\\\" : \t\t\t\t{\n\t\t\t\t\t\\\"destination\\\" : [ \\\"obj-92\\\", 0 ],\n\t\t\t\t\t\\\"order\\\" : 0,\n\t\t\t\t\t\\\"source\\\" : [ \\\"obj-54\\\", 0 ]\n\t\t\t\t}\n\n\t\t\t}\n, \t\t\t{\n\t\t\t\t\\\"patchline\\\" : \t\t\t\t{\n\t\t\t\t\t\\\"destination\\\" : [ \\\"obj-54\\\", 0 ],\n\t\t\t\t\t\\\"source\\\" : [ \\\"obj-57\\\", 0 ]\n\t\t\t\t}\n\n\t\t\t}\n, \t\t\t{\n\t\t\t\t\\\"patchline\\\" : \t\t\t\t{\n\t\t\t\t\t\\\"destination\\\" : [ \\\"obj-65\\\", 0 ],\n\t\t\t\t\t\\\"source\\\" : [ \\\"obj-58\\\", 0 ]\n\t\t\t\t}\n\n\t\t\t}\n, \t\t\t{\n\t\t\t\t\\\"patchline\\\" : \t\t\t\t{\n\t\t\t\t\t\\\"destination\\\" : [ \\\"obj-46\\\", 0 ],\n\t\t\t\t\t\\\"midpoints\\\" : [ 284.5, 122.0, 396.5, 122.0 ],\n\t\t\t\t\t\\\"source\\\" : [ \\\"obj-59\\\", 1 ]\n\t\t\t\t}\n\n\t\t\t}\n, \t\t\t{\n\t\t\t\t\\\"patchline\\\" : \t\t\t\t{\n\t\t\t\t\t\\\"destination\\\" : [ \\\"obj-58\\\", 0 ],\n\t\t\t\t\t\\\"source\\\" : [ \\\"obj-59\\\", 0 ]\n\t\t\t\t}\n\n\t\t\t}\n, \t\t\t{\n\t\t\t\t\\\"patchline\\\" : \t\t\t\t{\n\t\t\t\t\t\\\"destination\\\" : [ \\\"obj-7\\\", 0 ],\n\t\t\t\t\t\\\"source\\\" : [ \\\"obj-6\\\", 0 ]\n\t\t\t\t}\n\n\t\t\t}\n, \t\t\t{\n\t\t\t\t\\\"patchline\\\" : \t\t\t\t{\n\t\t\t\t\t\\\"destination\\\" : [ \\\"obj-54\\\", 0 ],\n\t\t\t\t\t\\\"midpoints\\\" : [ 269.5, 366.5, 284.5, 366.5 ],\n\t\t\t\t\t\\\"order\\\" : 0,\n\t\t\t\t\t\\\"source\\\" : [ \\\"obj-62\\\", 0 ]\n\t\t\t\t}\n\n\t\t\t}\n, \t\t\t{\n\t\t\t\t\\\"patchline\\\" : \t\t\t\t{\n\t\t\t\t\t\\\"destination\\\" : [ \\\"obj-57\\\", 0 ],\n\t\t\t\t\t\\\"source\\\" : [ \\\"obj-62\\\", 1 ]\n\t\t\t\t}\n\n\t\t\t}\n, \t\t\t{\n\t\t\t\t\\\"patchline\\\" : \t\t\t\t{\n\t\t\t\t\t\\\"destination\\\" : [ \\\"obj-82\\\", 0 ],\n\t\t\t\t\t\\\"midpoints\\\" : [ 269.5, 328.0, 61.5, 328.0 ],\n\t\t\t\t\t\\\"order\\\" : 1,\n\t\t\t\t\t\\\"source\\\" : [ \\\"obj-62\\\", 0 ]\n\t\t\t\t}\n\n\t\t\t}\n, \t\t\t{\n\t\t\t\t\\\"patchline\\\" : \t\t\t\t{\n\t\t\t\t\t\\\"destination\\\" : [ \\\"obj-62\\\", 0 ],\n\t\t\t\t\t\\\"source\\\" : [ \\\"obj-65\\\", 0 ]\n\t\t\t\t}\n\n\t\t\t}\n, \t\t\t{\n\t\t\t\t\\\"patchline\\\" : \t\t\t\t{\n\t\t\t\t\t\\\"destination\\\" : [ \\\"obj-8\\\", 0 ],\n\t\t\t\t\t\\\"source\\\" : [ \\\"obj-7\\\", 0 ]\n\t\t\t\t}\n\n\t\t\t}\n, \t\t\t{\n\t\t\t\t\\\"patchline\\\" : \t\t\t\t{\n\t\t\t\t\t\\\"destination\\\" : [ \\\"obj-1\\\", 0 ],\n\t\t\t\t\t\\\"source\\\" : [ \\\"obj-8\\\", 0 ]\n\t\t\t\t}\n\n\t\t\t}\n, \t\t\t{\n\t\t\t\t\\\"patchline\\\" : \t\t\t\t{\n\t\t\t\t\t\\\"destination\\\" : [ \\\"obj-54\\\", 0 ],\n\t\t\t\t\t\\\"midpoints\\\" : [ 61.5, 374.0, 284.5, 374.0 ],\n\t\t\t\t\t\\\"source\\\" : [ \\\"obj-82\\\", 0 ]\n\t\t\t\t}\n\n\t\t\t}\n, \t\t\t{\n\t\t\t\t\\\"patchline\\\" : \t\t\t\t{\n\t\t\t\t\t\\\"destination\\\" : [ \\\"obj-88\\\", 0 ],\n\t\t\t\t\t\\\"source\\\" : [ \\\"obj-89\\\", 0 ]\n\t\t\t\t}\n\n\t\t\t}\n, \t\t\t{\n\t\t\t\t\\\"patchline\\\" : \t\t\t\t{\n\t\t\t\t\t\\\"destination\\\" : [ \\\"obj-59\\\", 0 ],\n\t\t\t\t\t\\\"source\\\" : [ \\\"obj-9\\\", 0 ]\n\t\t\t\t}\n\n\t\t\t}\n, \t\t\t{\n\t\t\t\t\\\"patchline\\\" : \t\t\t\t{\n\t\t\t\t\t\\\"destination\\\" : [ \\\"obj-62\\\", 0 ],\n\t\t\t\t\t\\\"source\\\" : [ \\\"obj-91\\\", 0 ]\n\t\t\t\t}\n\n\t\t\t}\n, \t\t\t{\n\t\t\t\t\\\"patchline\\\" : \t\t\t\t{\n\t\t\t\t\t\\\"destination\\\" : [ \\\"obj-95\\\", 1 ],\n\t\t\t\t\t\\\"order\\\" : 0,\n\t\t\t\t\t\\\"source\\\" : [ \\\"obj-92\\\", 0 ]\n\t\t\t\t}\n\n\t\t\t}\n, \t\t\t{\n\t\t\t\t\\\"patchline\\\" : \t\t\t\t{\n\t\t\t\t\t\\\"destination\\\" : [ \\\"obj-96\\\", 0 ],\n\t\t\t\t\t\\\"order\\\" : 1,\n\t\t\t\t\t\\\"source\\\" : [ \\\"obj-92\\\", 0 ]\n\t\t\t\t}\n\n\t\t\t}\n, \t\t\t{\n\t\t\t\t\\\"patchline\\\" : \t\t\t\t{\n\t\t\t\t\t\\\"destination\\\" : [ \\\"obj-93\\\", 0 ],\n\t\t\t\t\t\\\"source\\\" : [ \\\"obj-96\\\", 0 ]\n\t\t\t\t}\n\n\t\t\t}\n ],\n\t\t\\\"dependency_cache\\\" : [ \t\t\t{\n\t\t\t\t\\\"name\\\" : \\\"ws.mxo\\\",\n\t\t\t\t\\\"type\\\" : \\\"iLaX\\\"\n\t\t\t}\n ],\n\t\t\\\"autosave\\\" : 0\n\t}\n\n}\n\""
				}

			}
, 			{
				"box" : 				{
					"id" : "obj-93",
					"maxclass" : "newobj",
					"numinlets" : 2,
					"numoutlets" : 4,
					"outlettype" : [ "dictionary", "", "", "" ],
					"patching_rect" : [ 539.0, 459.0, 89.0, 22.0 ],
					"saved_object_attributes" : 					{
						"embed" : 0,
						"parameter_enable" : 0
					}
,
					"style" : "",
					"text" : "dict keyframe2"
				}

			}
, 			{
				"box" : 				{
					"id" : "obj-91",
					"maxclass" : "button",
					"numinlets" : 1,
					"numoutlets" : 1,
					"outlettype" : [ "bang" ],
					"patching_rect" : [ 203.0, 252.0, 24.0, 24.0 ],
					"style" : ""
				}

			}
, 			{
				"box" : 				{
					"id" : "obj-89",
					"maxclass" : "newobj",
					"numinlets" : 1,
					"numoutlets" : 1,
					"outlettype" : [ "bang" ],
					"patching_rect" : [ 263.0, 737.0, 60.0, 22.0 ],
					"style" : "",
					"text" : "loadbang"
				}

			}
, 			{
				"box" : 				{
					"id" : "obj-88",
					"linecount" : 2,
					"maxclass" : "message",
					"numinlets" : 2,
					"numoutlets" : 1,
					"outlettype" : [ "" ],
					"patching_rect" : [ 263.0, 771.0, 164.0, 35.0 ],
					"style" : "",
					"text" : ";\rmax sortpatcherdictonsave 1"
				}

			}
, 			{
				"box" : 				{
					"id" : "obj-86",
					"linecount" : 10,
					"maxclass" : "comment",
					"numinlets" : 1,
					"numoutlets" : 0,
					"patching_rect" : [ 78.25, 562.0, 478.0, 141.0 ],
					"style" : "",
					"text" : "possible data structure for representing Editor files in git diffs: GML\n\nhttp://docs.yworks.com/yfiles/doc/developers-guide/gml.html\n\nNeed to ask Graham if this is something he'd work with. The trick is that we'd need to get every node and edge in its own line (no line breaks, or else git gets weird)\n\n\nalternately, graphviz might make more sense, since it powers a lot of apps. could therefore stick with the the dot format of files. "
				}

			}
, 			{
				"box" : 				{
					"id" : "obj-84",
					"linecount" : 2,
					"maxclass" : "comment",
					"numinlets" : 1,
					"numoutlets" : 0,
					"patching_rect" : [ 260.0, 4.5, 150.0, 33.0 ],
					"style" : "",
					"text" : "1. run \"node vr-commits.js\" in terminal"
				}

			}
, 			{
				"box" : 				{
					"id" : "obj-82",
					"maxclass" : "message",
					"numinlets" : 2,
					"numoutlets" : 1,
					"outlettype" : [ "" ],
					"patching_rect" : [ 52.0, 335.0, 207.0, 22.0 ],
					"style" : "",
					"text" : "write atomic_commits.keyframe.yaml"
				}

			}
, 			{
				"box" : 				{
					"id" : "obj-67",
					"linecount" : 3,
					"maxclass" : "comment",
					"numinlets" : 1,
					"numoutlets" : 0,
					"patching_rect" : [ 406.25, 141.0, 150.0, 47.0 ],
					"style" : "",
					"text" : "for now, this will be how we commit, using a single line commit. "
				}

			}
, 			{
				"box" : 				{
					"id" : "obj-65",
					"maxclass" : "newobj",
					"numinlets" : 2,
					"numoutlets" : 2,
					"outlettype" : [ "bang", "" ],
					"patching_rect" : [ 260.0, 276.0, 36.0, 22.0 ],
					"style" : "",
					"text" : "sel 0"
				}

			}
, 			{
				"box" : 				{
					"id" : "obj-64",
					"maxclass" : "dict.view",
					"numinlets" : 1,
					"numoutlets" : 0,
					"patching_rect" : [ 275.0, 413.0, 215.0, 96.0 ],
					"style" : ""
				}

			}
, 			{
				"box" : 				{
					"id" : "obj-62",
					"maxclass" : "newobj",
					"numinlets" : 1,
					"numoutlets" : 2,
					"outlettype" : [ "bang", "bang" ],
					"patching_rect" : [ 260.0, 300.0, 34.0, 22.0 ],
					"style" : "",
					"text" : "t b b"
				}

			}
, 			{
				"box" : 				{
					"id" : "obj-58",
					"maxclass" : "newobj",
					"numinlets" : 5,
					"numoutlets" : 4,
					"outlettype" : [ "int", "", "", "int" ],
					"patching_rect" : [ 260.0, 252.0, 77.0, 22.0 ],
					"style" : "",
					"text" : "counter 0 10"
				}

			}
, 			{
				"box" : 				{
					"id" : "obj-59",
					"maxclass" : "newobj",
					"numinlets" : 1,
					"numoutlets" : 2,
					"outlettype" : [ "bang", "bang" ],
					"patching_rect" : [ 260.0, 94.0, 34.0, 22.0 ],
					"style" : "",
					"text" : "t b b"
				}

			}
, 			{
				"box" : 				{
					"id" : "obj-57",
					"maxclass" : "message",
					"numinlets" : 2,
					"numoutlets" : 1,
					"outlettype" : [ "" ],
					"patching_rect" : [ 275.0, 335.0, 187.0, 22.0 ],
					"style" : "",
					"text" : "readany atomic_commits.maxpat"
				}

			}
, 			{
				"box" : 				{
					"id" : "obj-54",
					"maxclass" : "newobj",
					"numinlets" : 2,
					"numoutlets" : 4,
					"outlettype" : [ "dictionary", "", "", "" ],
					"patching_rect" : [ 275.0, 380.0, 215.0, 22.0 ],
					"saved_object_attributes" : 					{
						"embed" : 0,
						"parameter_enable" : 0
					}
,
					"style" : "",
					"text" : "dict keyframe"
				}

			}
, 			{
				"box" : 				{
					"id" : "obj-48",
					"maxclass" : "toggle",
					"numinlets" : 1,
					"numoutlets" : 1,
					"outlettype" : [ "int" ],
					"parameter_enable" : 0,
					"patching_rect" : [ 84.0, 9.0, 24.0, 24.0 ],
					"style" : ""
				}

			}
, 			{
				"box" : 				{
					"id" : "obj-46",
					"maxclass" : "message",
					"numinlets" : 2,
					"numoutlets" : 1,
					"outlettype" : [ "" ],
					"patching_rect" : [ 387.0, 193.0, 196.0, 22.0 ],
					"style" : "",
					"text" : "git commit -a -m \\\"atomic_commit\\\""
				}

			}
, 			{
				"box" : 				{
					"id" : "obj-38",
					"maxclass" : "newobj",
					"numinlets" : 1,
					"numoutlets" : 1,
					"outlettype" : [ "bang" ],
					"patching_rect" : [ 7.75, 99.0, 24.0, 22.0 ],
					"style" : "",
					"text" : "t b"
				}

			}
, 			{
				"box" : 				{
					"id" : "obj-34",
					"maxclass" : "newobj",
					"numinlets" : 0,
					"numoutlets" : 4,
					"outlettype" : [ "int", "int", "int", "int" ],
					"patching_rect" : [ 7.75, 68.0, 50.5, 22.0 ],
					"style" : "",
					"text" : "keyup"
				}

			}
, 			{
				"box" : 				{
					"id" : "obj-33",
					"linecount" : 6,
					"maxclass" : "comment",
					"numinlets" : 1,
					"numoutlets" : 0,
					"patching_rect" : [ 7.75, 215.0, 166.0, 87.0 ],
					"style" : "",
					"text" : "right now an atomic change is a mouse click-up, or a keyup\n\n(evenutally it could also be a parameter change)"
				}

			}
, 			{
				"box" : 				{
					"id" : "obj-4",
					"maxclass" : "newobj",
					"numinlets" : 2,
					"numoutlets" : 1,
					"outlettype" : [ "bang" ],
					"patching_rect" : [ 406.25, 221.0, 115.0, 22.0 ],
					"style" : "",
					"text" : "metro 10 @active 1"
				}

			}
, 			{
				"box" : 				{
					"color" : [ 0.952941, 0.564706, 0.098039, 1.0 ],
					"id" : "obj-92",
					"maxclass" : "newobj",
					"numinlets" : 1,
					"numoutlets" : 2,
					"outlettype" : [ "", "" ],
					"patching_rect" : [ 406.25, 262.0, 91.0, 22.0 ],
					"style" : "",
					"text" : "ws @port 8080"
				}

			}
, 			{
				"box" : 				{
					"id" : "obj-17",
					"maxclass" : "newobj",
					"numinlets" : 1,
					"numoutlets" : 1,
					"outlettype" : [ "" ],
					"patching_rect" : [ 260.0, 42.0, 72.0, 22.0 ],
					"style" : "",
					"text" : "loadmess 1"
				}

			}
, 			{
				"box" : 				{
					"id" : "obj-9",
					"maxclass" : "newobj",
					"numinlets" : 1,
					"numoutlets" : 1,
					"outlettype" : [ "bang" ],
					"patching_rect" : [ 260.0, 70.0, 190.0, 22.0 ],
					"style" : "",
					"text" : "filewatch atomic_commits.maxpat"
				}

			}
, 			{
				"box" : 				{
					"id" : "obj-8",
					"maxclass" : "newobj",
					"numinlets" : 1,
					"numoutlets" : 1,
					"outlettype" : [ "write" ],
					"patching_rect" : [ 84.0, 146.0, 43.0, 22.0 ],
					"style" : "",
					"text" : "t write"
				}

			}
, 			{
				"box" : 				{
					"id" : "obj-7",
					"maxclass" : "newobj",
					"numinlets" : 2,
					"numoutlets" : 2,
					"outlettype" : [ "bang", "" ],
					"patching_rect" : [ 84.0, 116.0, 36.0, 22.0 ],
					"style" : "",
					"text" : "sel 0"
				}

			}
, 			{
				"box" : 				{
					"id" : "obj-6",
					"maxclass" : "newobj",
					"numinlets" : 1,
					"numoutlets" : 3,
					"outlettype" : [ "", "int", "int" ],
					"patching_rect" : [ 84.0, 92.0, 50.0, 22.0 ],
					"style" : "",
					"text" : "change"
				}

			}
, 			{
				"box" : 				{
					"id" : "obj-3",
					"maxclass" : "newobj",
					"numinlets" : 2,
					"numoutlets" : 1,
					"outlettype" : [ "bang" ],
					"patching_rect" : [ 84.0, 41.0, 115.0, 22.0 ],
					"style" : "",
					"text" : "metro 10 @active 1"
				}

			}
, 			{
				"box" : 				{
					"id" : "obj-2",
					"maxclass" : "newobj",
					"numinlets" : 1,
					"numoutlets" : 5,
					"outlettype" : [ "int", "int", "int", "int", "int" ],
					"patching_rect" : [ 84.0, 68.0, 73.0, 22.0 ],
					"style" : "",
					"text" : "mousestate"
				}

			}
, 			{
				"box" : 				{
					"id" : "obj-1",
					"maxclass" : "newobj",
					"numinlets" : 1,
					"numoutlets" : 2,
					"outlettype" : [ "", "" ],
					"patching_rect" : [ 84.0, 182.0, 69.0, 22.0 ],
					"save" : [ "#N", "thispatcher", ";", "#Q", "end", ";" ],
					"style" : "",
					"text" : "thispatcher"
				}

			}
 ],
		"lines" : [ 			{
				"patchline" : 				{
					"destination" : [ "obj-9", 0 ],
					"source" : [ "obj-17", 0 ]
				}

			}
, 			{
				"patchline" : 				{
					"destination" : [ "obj-6", 0 ],
					"source" : [ "obj-2", 0 ]
				}

			}
, 			{
				"patchline" : 				{
					"destination" : [ "obj-2", 0 ],
					"source" : [ "obj-3", 0 ]
				}

			}
, 			{
				"patchline" : 				{
					"destination" : [ "obj-38", 0 ],
					"source" : [ "obj-34", 2 ]
				}

			}
, 			{
				"patchline" : 				{
					"destination" : [ "obj-38", 0 ],
					"source" : [ "obj-34", 0 ]
				}

			}
, 			{
				"patchline" : 				{
					"destination" : [ "obj-8", 0 ],
					"midpoints" : [ 17.25, 141.0, 93.5, 141.0 ],
					"source" : [ "obj-38", 0 ]
				}

			}
, 			{
				"patchline" : 				{
					"destination" : [ "obj-92", 0 ],
					"source" : [ "obj-4", 0 ]
				}

			}
, 			{
				"patchline" : 				{
					"destination" : [ "obj-92", 0 ],
					"midpoints" : [ 396.5, 250.5, 415.75, 250.5 ],
					"source" : [ "obj-46", 0 ]
				}

			}
, 			{
				"patchline" : 				{
					"destination" : [ "obj-3", 0 ],
					"source" : [ "obj-48", 0 ]
				}

			}
, 			{
				"patchline" : 				{
					"destination" : [ "obj-64", 0 ],
					"order" : 1,
					"source" : [ "obj-54", 0 ]
				}

			}
, 			{
				"patchline" : 				{
					"destination" : [ "obj-92", 0 ],
					"order" : 0,
					"source" : [ "obj-54", 0 ]
				}

			}
, 			{
				"patchline" : 				{
					"destination" : [ "obj-54", 0 ],
					"source" : [ "obj-57", 0 ]
				}

			}
, 			{
				"patchline" : 				{
					"destination" : [ "obj-65", 0 ],
					"source" : [ "obj-58", 0 ]
				}

			}
, 			{
				"patchline" : 				{
					"destination" : [ "obj-46", 0 ],
					"midpoints" : [ 284.5, 122.0, 396.5, 122.0 ],
					"source" : [ "obj-59", 1 ]
				}

			}
, 			{
				"patchline" : 				{
					"destination" : [ "obj-58", 0 ],
					"source" : [ "obj-59", 0 ]
				}

			}
, 			{
				"patchline" : 				{
					"destination" : [ "obj-7", 0 ],
					"source" : [ "obj-6", 0 ]
				}

			}
, 			{
				"patchline" : 				{
					"destination" : [ "obj-54", 0 ],
					"midpoints" : [ 269.5, 366.5, 284.5, 366.5 ],
					"order" : 0,
					"source" : [ "obj-62", 0 ]
				}

			}
, 			{
				"patchline" : 				{
					"destination" : [ "obj-57", 0 ],
					"source" : [ "obj-62", 1 ]
				}

			}
, 			{
				"patchline" : 				{
					"destination" : [ "obj-82", 0 ],
					"midpoints" : [ 269.5, 328.0, 61.5, 328.0 ],
					"order" : 1,
					"source" : [ "obj-62", 0 ]
				}

			}
, 			{
				"patchline" : 				{
					"destination" : [ "obj-62", 0 ],
					"source" : [ "obj-65", 0 ]
				}

			}
, 			{
				"patchline" : 				{
					"destination" : [ "obj-8", 0 ],
					"source" : [ "obj-7", 0 ]
				}

			}
, 			{
				"patchline" : 				{
					"destination" : [ "obj-1", 0 ],
					"source" : [ "obj-8", 0 ]
				}

			}
, 			{
				"patchline" : 				{
					"destination" : [ "obj-54", 0 ],
					"midpoints" : [ 61.5, 374.0, 284.5, 374.0 ],
					"source" : [ "obj-82", 0 ]
				}

			}
, 			{
				"patchline" : 				{
					"destination" : [ "obj-88", 0 ],
					"source" : [ "obj-89", 0 ]
				}

			}
, 			{
				"patchline" : 				{
					"destination" : [ "obj-59", 0 ],
					"source" : [ "obj-9", 0 ]
				}

			}
, 			{
				"patchline" : 				{
					"destination" : [ "obj-62", 0 ],
					"source" : [ "obj-91", 0 ]
				}

			}
, 			{
				"patchline" : 				{
					"destination" : [ "obj-95", 1 ],
					"order" : 0,
					"source" : [ "obj-92", 0 ]
				}

			}
, 			{
				"patchline" : 				{
					"destination" : [ "obj-97", 0 ],
					"order" : 1,
					"source" : [ "obj-92", 0 ]
				}

			}
, 			{
				"patchline" : 				{
					"destination" : [ "obj-93", 0 ],
					"source" : [ "obj-96", 0 ]
				}

			}
 ],
		"dependency_cache" : [ 			{
				"name" : "ws.mxo",
				"type" : "iLaX"
			}
 ],
		"autosave" : 0
	}

}
